<?xml version="1.0" encoding="utf-8"?>
<!-- Generator: Adobe Illustrator 23.0.5, SVG Export Plug-In . SVG Version: 6.00 Build 0)  -->
<svg version="1.1" id="Capa_1" xmlns="http://www.w3.org/2000/svg" xmlns:xlink="http://www.w3.org/1999/xlink" x="0px" y="0px"
	 viewBox="0 0 1080 1080" style="enable-background:new 0 0 1080 1080;" xml:space="preserve">
<style type="text/css">
	.st0{fill:#FFFFFF;}
	.st1{fill:#E27B00;}
</style>
<path class="st0" d="M95,341"/>
<g>
	<g>
		<path class="st1" d="M91.84,348.36c0.07,14.15,6.56,28.08,13.12,40.28c9.96,18.52,22.72,35.55,36.13,51.69
			c37.42,45.03,82.69,83.76,130.88,116.82c58.75,40.31,123.78,72.18,192.33,91.91c76.78,22.1,157.72,27.99,236.67,15.08
			c93.56-15.3,180.89-57.19,256.33-113.88c11.1-8.34,21.99-16.98,32.66-25.87c3.49-2.91,3.01-8.89,0-11.9
			c-3.46-3.46-8.4-2.92-11.9,0c-73.43,61.22-158.8,108.88-252.6,129.83c-76.16,17.01-155.54,15.35-231.32-2.8
			c-68.84-16.49-134.16-45.72-193.76-83.73c-49.5-31.58-95.43-69.07-134.84-112.87c-3.92-4.36-7.78-8.79-11.54-13.29
			c-1.8-2.15-3.58-4.32-5.34-6.5c-0.94-1.16-1.86-2.33-2.79-3.5c-0.38-0.48-0.76-0.96-1.13-1.45c-1.28-1.64,0.27,0.37-0.69-0.89
			c-6.22-8.12-12.15-16.47-17.56-25.15c-4.36-6.99-8.42-14.2-11.81-21.72c-0.4-0.88-0.78-1.76-1.16-2.64
			c0.83,1.92,0.18,0.44-0.21-0.56c-0.64-1.64-1.26-3.27-1.81-4.94c-0.95-2.83-1.76-5.72-2.33-8.65c-0.11-0.57-0.18-1.16-0.3-1.73
			c-0.41-1.93,0.11,2.37,0-0.09c-0.05-1.15-0.17-2.28-0.18-3.44C108.62,337.54,91.79,337.51,91.84,348.36L91.84,348.36z"/>
	</g>
</g>
<g>
	<g>
		<path class="st1" d="M992.42,616.99c0-28.57,0-57.15,0-85.72c0-4.16,0-8.31,0-12.47c0-10.83-16.83-10.85-16.83,0
			c0,28.57,0,57.15,0,85.72c0,4.16,0,8.31,0,12.47C975.58,627.82,992.42,627.84,992.42,616.99L992.42,616.99z"/>
	</g>
</g>
<g>
	<g>
		<path class="st1" d="M927.76,505.87c18,7.01,36,14.03,54.01,21.04c4.24,1.65,9.24-1.82,10.35-5.88c1.31-4.76-1.63-8.7-5.88-10.35
			c-18-7.01-36-14.03-54.01-21.04c-4.24-1.65-9.24,1.82-10.35,5.88C920.57,500.29,923.5,504.22,927.76,505.87L927.76,505.87z"/>
	</g>
</g>
</svg>
